<svg version="1.1" id="Layer_1" xmlns="http://www.w3.org/2000/svg" xmlns:xlink="http://www.w3.org/1999/xlink" x="0px" y="0px"
	 width="100%" viewBox="0 0 2021 778" enable-background="new 0 0 2021 778" xml:space="preserve">

<path fill="#C4862F" opacity="1.000000" stroke="none" 
	d="
M308.987366,499.995819 
	C308.972351,499.824554 308.957336,499.653290 309.380554,499.195496 
	C312.544495,495.372314 316.167572,493.537109 320.567749,492.922882 
	C321.814606,492.748840 323.131805,492.041412 324.119446,491.220795 
	C329.534912,486.721375 335.883850,484.848083 342.716522,483.857086 
	C344.546936,483.591614 347.083527,482.148163 347.613403,480.650299 
	C348.151703,479.128571 346.612000,476.871765 345.982330,474.936890 
	C345.534241,474.800415 345.086151,474.663940 344.638062,474.527496 
	C340.383484,482.512756 333.206207,480.928528 326.475647,481.048004 
	C323.143494,481.107178 319.758179,481.959137 317.136383,479.000000 
	C317.310486,477.966736 317.484589,476.933472 318.335175,475.844147 
	C327.736115,472.632385 328.988037,470.101471 327.132019,461.459900 
	C326.040558,456.378204 325.773468,451.124054 324.938568,445.979492 
	C324.713531,444.592804 323.768585,443.322937 323.154114,441.999451 
	C321.183289,421.677704 310.296112,405.570587 298.532837,389.871460 
	C289.647034,378.012543 280.332245,366.441956 272.037201,354.182281 
	C262.408081,339.950928 256.951050,324.290283 258.671265,306.604187 
	C261.222351,280.375122 278.908539,262.060028 305.269592,261.419922 
	C350.040680,260.332825 386.608032,277.649811 411.895721,315.035675 
	C430.333038,342.293701 428.536438,370.978851 412.517059,399.011475 
	C402.150513,417.152100 386.991791,431.371338 372.760956,446.334259 
	C364.396729,455.128754 355.474670,463.606232 351.316803,475.470978 
	C349.334015,481.128906 346.658722,486.854706 349.284424,493.468109 
	C345.118164,494.550110 341.339874,494.835968 337.794586,495.898987 
	C333.464294,497.197357 329.452698,499.921448 325.078674,500.617371 
	C319.824951,501.453217 314.160065,504.229828 308.987366,499.995819 
z"/>
<path fill="#C58830" opacity="1.000000" stroke="none" 
	d="
M752.133057,433.815063 
	C721.906189,428.077179 703.411011,403.406281 706.393005,373.316620 
	C709.109558,345.904358 733.320618,324.933929 762.219910,324.962036 
	C802.503418,325.001221 829.139832,362.740997 815.081848,399.859497 
	C805.921570,424.046173 780.393433,437.933197 752.133057,433.815063 
M734.473267,401.922546 
	C735.116455,402.685181 735.733521,403.471802 736.406860,404.206879 
	C749.205994,418.181305 769.065430,419.852722 784.140137,408.231445 
	C798.256287,397.349121 801.806580,375.446991 791.952942,360.032776 
	C782.400818,345.090118 762.206421,339.906738 746.095032,348.262177 
	C727.446167,357.933563 721.852417,382.575134 734.473267,401.922546 
z"/>
<path fill="#C68930" opacity="1.000000" stroke="none" 
	d="
M1430.991943,335.995239 
	C1448.264648,353.434113 1445.346069,375.538788 1423.339600,391.700989 
	C1431.690063,405.077850 1440.081543,418.520477 1449.016479,432.833832 
	C1440.911621,432.833832 1433.665161,432.973480 1426.434692,432.694031 
	C1425.252563,432.648376 1423.824341,430.949249 1423.048462,429.684021 
	C1416.956787,419.751801 1410.830688,409.833038 1405.088013,399.698914 
	C1403.156616,396.290649 1400.889771,395.010895 1397.134033,395.299805 
	C1393.719482,395.562500 1390.268555,395.355408 1386.286011,395.355408 
	C1386.286011,408.198883 1386.286011,420.268799 1386.286011,432.576691 
	C1379.279907,432.576691 1372.839111,432.576691 1366.011230,432.576691 
	C1366.011230,397.375763 1366.011230,362.328552 1366.011230,327.321869 
	C1366.663696,326.972961 1367.082275,326.554535 1367.503052,326.552307 
	C1380.821289,326.481689 1394.150879,326.107208 1407.454102,326.538177 
	C1416.106934,326.818451 1423.992432,330.093933 1430.991943,335.995239 
M1418.028198,370.224213 
	C1423.524170,358.315063 1418.179932,346.703003 1405.983032,345.186310 
	C1399.643433,344.397980 1393.125122,345.047485 1386.622559,345.047485 
	C1386.622559,356.300354 1386.622559,367.155640 1386.622559,378.226807 
	C1392.404785,378.226807 1397.719482,378.292328 1403.031982,378.209473 
	C1409.048462,378.115631 1414.042603,375.862488 1418.028198,370.224213 
z"/>
<path fill="#C68831" opacity="1.000000" stroke="none" 
	d="
M266.735962,250.862686 
	C254.231033,251.040314 244.808762,245.718994 238.877335,235.596695 
	C226.697510,214.811188 225.582245,193.044525 237.347122,171.879730 
	C249.330200,150.322388 275.398376,149.776581 288.525574,170.616165 
	C301.014374,190.442245 301.035706,211.575546 291.696442,232.655716 
	C287.087616,243.058502 278.722046,249.329224 266.735962,250.862686 
z"/>
<path fill="#C58932" opacity="1.000000" stroke="none" 
	d="
M1619.000244,326.289581 
	C1639.281128,326.290985 1659.062134,326.290985 1678.872681,326.290985 
	C1680.441895,332.173828 1678.876221,336.643585 1675.690063,341.137390 
	C1659.122803,364.503937 1642.758911,388.014648 1626.331909,411.480621 
	C1625.777222,412.273041 1625.306763,413.124451 1624.291504,414.765320 
	C1642.954224,414.765320 1660.947144,414.765320 1679.202881,414.765320 
	C1679.202881,421.057922 1679.202881,426.644745 1679.202881,432.530945 
	C1650.808228,432.530945 1622.729370,432.530945 1594.303833,432.530945 
	C1593.447510,428.211731 1593.825928,424.464783 1596.558228,420.515381 
	C1612.948486,396.824829 1629.081177,372.956024 1645.281860,349.134430 
	C1645.992554,348.089539 1646.525757,346.924011 1647.709595,344.791412 
	C1642.133301,344.791412 1637.385010,344.782135 1632.636597,344.793335 
	C1622.473267,344.817261 1612.308472,344.764160 1602.147461,344.935455 
	C1599.104492,344.986725 1597.985352,343.994293 1598.120728,340.918152 
	C1598.324097,336.301178 1598.173706,331.668640 1598.173706,326.288177 
	C1605.277466,326.288177 1611.888916,326.288177 1619.000244,326.289581 
z"/>
<path fill="#C68A32" opacity="1.000000" stroke="none" 
	d="
M1743.422852,394.999817 
	C1743.421875,373.507721 1743.526855,352.514618 1743.331421,331.524323 
	C1743.291992,327.290161 1744.677124,326.224060 1748.752075,326.261627 
	C1768.076538,326.439728 1787.403687,326.310699 1806.729980,326.306580 
	C1808.040894,326.306305 1809.351685,326.433563 1811.352783,326.537292 
	C1811.352783,331.958557 1811.571533,337.238190 1811.143555,342.464905 
	C1811.069702,343.365723 1808.259277,344.692261 1806.694824,344.717834 
	C1794.702515,344.913666 1782.705688,344.836426 1770.710327,344.843628 
	C1768.911377,344.844696 1767.112549,344.843811 1764.874756,344.843811 
	C1764.874756,353.376617 1764.874756,361.418304 1764.874756,369.907593 
	C1777.275635,369.907593 1789.537109,369.907593 1802.285645,369.907593 
	C1802.285645,376.012299 1802.285645,381.688354 1802.285645,387.832092 
	C1789.827393,387.832092 1777.567139,387.832092 1764.861084,387.832092 
	C1764.861084,396.963226 1764.861084,405.639221 1764.861084,414.935181 
	C1780.326904,414.935181 1795.567871,414.935181 1811.126465,414.935181 
	C1811.126465,421.118683 1811.126465,426.687134 1811.126465,432.545105 
	C1788.538818,432.545105 1766.302734,432.545105 1743.422974,432.545105 
	C1743.422974,420.054901 1743.422974,407.777344 1743.422852,394.999817 
z"/>
<path fill="#C68A32" opacity="1.000000" stroke="none" 
	d="
M1048.000244,387.888916 
	C1041.683105,387.887482 1035.865601,387.887482 1029.556519,387.887482 
	C1029.556519,396.808472 1029.556519,405.366486 1029.556519,414.604309 
	C1044.755005,414.604309 1059.995972,414.604309 1075.634399,414.604309 
	C1075.634399,420.837494 1075.634399,426.414490 1075.634399,432.419006 
	C1053.666870,432.419006 1031.597656,432.419006 1009.046143,432.419006 
	C1009.046143,397.311951 1009.046143,362.134583 1009.046143,326.610962 
	C1031.190918,326.610962 1053.101196,326.610962 1075.378174,326.610962 
	C1075.378174,332.510895 1075.378174,338.245819 1075.378174,344.603638 
	C1060.145386,344.603638 1044.913208,344.603638 1029.398193,344.603638 
	C1029.398193,353.281311 1029.398193,361.341614 1029.398193,370.008148 
	C1041.979004,370.008148 1054.208740,370.008148 1066.865479,370.008148 
	C1066.865479,376.166321 1066.865479,381.726166 1066.865479,387.890381 
	C1060.706177,387.890381 1054.603027,387.890381 1048.000244,387.888916 
z"/>
<path fill="#C58932" opacity="1.000000" stroke="none" 
	d="
M1249.094727,415.999481 
	C1249.094727,421.646118 1249.094727,426.793549 1249.094727,432.394653 
	C1242.107422,432.394653 1235.425293,432.394653 1228.452881,432.394653 
	C1228.373413,431.303741 1228.243164,430.346802 1228.242920,429.389862 
	C1228.235718,397.599548 1228.197754,365.809113 1228.271973,334.018951 
	C1228.293213,324.877625 1227.957397,326.361176 1235.663574,326.399750 
	C1248.794800,326.465424 1262.007690,326.023743 1275.032104,327.331665 
	C1289.238159,328.758362 1300.339966,339.761841 1303.540161,353.207184 
	C1306.999756,367.742554 1301.969604,382.526489 1290.627075,390.520081 
	C1283.998535,395.191559 1276.293579,396.588867 1268.385742,396.841522 
	C1262.246338,397.037659 1256.095703,396.880707 1249.094604,396.880707 
	C1249.094604,403.329224 1249.094604,409.414764 1249.094727,415.999481 
M1277.483276,348.926544 
	C1268.755493,342.020844 1258.845093,345.728546 1249.121948,344.868134 
	C1249.121948,356.242554 1249.116699,366.695923 1249.132446,377.149261 
	C1249.133667,377.940826 1249.283691,378.732178 1249.413818,380.005676 
	C1254.581787,380.005676 1259.520874,380.019104 1264.459839,380.002502 
	C1271.757080,379.977966 1278.127686,377.852020 1281.267334,370.721436 
	C1284.611206,363.126892 1283.812622,355.817047 1277.483276,348.926544 
z"/>
<path fill="#C5872F" opacity="1.000000" stroke="none" 
	d="
M606.341980,325.224701 
	C621.665039,324.596130 634.717407,328.544739 645.120972,340.428497 
	C640.861206,344.572357 636.756165,348.565704 632.410950,352.792725 
	C630.148132,351.143860 627.853149,349.280884 625.376343,347.703491 
	C618.698486,343.450470 611.468140,342.282043 603.854309,344.556122 
	C599.621643,345.820312 596.359924,348.334930 595.808044,353.104156 
	C595.231873,358.083252 597.157410,362.086060 601.629089,364.291779 
	C605.936340,366.416382 610.513672,368.006805 615.013123,369.724884 
	C620.139343,371.682220 625.418884,373.273132 630.440186,375.462830 
	C641.220215,380.163788 647.847534,388.192444 648.530151,400.238922 
	C649.235535,412.685242 643.947144,422.168884 633.319763,428.573975 
	C615.809143,439.127655 588.200256,435.321930 574.227173,420.477539 
	C572.556824,418.703125 571.180542,416.651978 569.399780,414.388153 
	C574.423706,410.443237 579.082947,406.784668 584.106506,402.840057 
	C589.750549,410.685822 596.891235,415.898682 606.438110,416.616119 
	C610.174377,416.896912 614.137878,416.578705 617.741638,415.594879 
	C622.463806,414.305695 625.956482,411.181610 626.607178,405.875763 
	C627.292542,400.287140 624.977905,396.055115 620.194702,393.378723 
	C617.166687,391.684448 613.854065,390.468994 610.602173,389.211761 
	C605.329590,387.173370 599.933411,385.443542 594.710876,383.288879 
	C580.309631,377.347229 573.635620,367.089569 574.944275,353.251221 
	C576.204590,339.923737 585.931274,329.420868 599.986450,326.266693 
	C601.931091,325.830261 603.918030,325.582764 606.341980,325.224701 
z"/>
<path fill="#C58932" opacity="1.000000" stroke="none" 
	d="
M945.784424,415.089020 
	C946.609375,420.773529 946.990662,426.332581 947.404907,432.373169 
	C925.208069,432.373169 903.665588,432.373169 881.619934,432.373169 
	C881.518860,431.066620 881.311768,429.638733 881.312378,428.210907 
	C881.326477,396.228516 881.467346,364.245544 881.286316,332.264343 
	C881.258484,327.350586 882.768188,325.874481 887.501892,326.278534 
	C892.124329,326.673096 896.806824,326.364380 902.330994,326.364380 
	C902.330994,328.874329 902.331360,331.115784 902.330994,333.357208 
	C902.326965,358.676575 902.438232,383.997009 902.210938,409.314362 
	C902.170532,413.813324 903.624756,415.033844 907.868896,414.973022 
	C920.356995,414.793976 932.849854,414.942963 945.784424,415.089020 
z"/>
<path fill="#C98A31" opacity="1.000000" stroke="none" 
	d="
M401.015381,543.961609 
	C401.657318,544.068237 402.299255,544.174927 402.847778,544.736572 
	C402.821655,546.217773 402.515900,547.501282 403.017242,548.228149 
	C406.089203,552.682068 405.832214,553.441345 400.541077,555.089233 
	C399.242584,555.493652 398.074005,556.315063 396.669312,557.035278 
	C397.326355,558.168640 397.794312,558.688049 397.945953,559.287476 
	C398.586884,561.821533 399.133728,564.379456 399.714966,566.928650 
	C397.722473,566.994812 395.730347,567.088867 393.737305,567.116455 
	C392.575836,567.132507 391.409637,566.964355 390.251129,567.012695 
	C383.031799,567.314209 375.816376,567.850952 368.595215,567.936707 
	C355.787476,568.088806 342.976532,567.990601 330.167023,567.960754 
	C326.919495,567.953186 323.672333,567.807129 320.424957,567.727844 
	C314.058228,567.572327 307.691925,567.394897 301.324524,567.273926 
	C297.511749,567.201477 293.697327,567.207092 289.883575,567.198486 
	C284.764343,567.186951 279.645081,567.195618 274.525818,567.195618 
	C274.313141,566.827026 274.100433,566.458435 273.887756,566.089844 
	C277.751068,563.827576 276.783661,561.843140 274.316284,559.782349 
	C271.502625,557.432190 270.434509,553.351746 273.032684,551.641357 
	C276.482117,549.370667 275.802063,546.812500 275.999176,543.992737 
	C283.019775,543.929016 290.040344,543.865295 297.814819,544.184631 
	C312.487396,544.691406 326.406036,544.826294 340.325043,544.898254 
	C340.882996,544.901184 341.444061,544.308289 342.003662,543.992981 
	C343.071198,543.937561 344.138763,543.882141 345.894989,544.205566 
	C364.172333,544.700378 381.760956,544.825256 399.349792,544.890991 
	C399.903809,544.893066 400.460114,544.285156 401.015381,543.961609 
z"/>
<path fill="#C68930" opacity="1.000000" stroke="none" 
	d="
M345.572205,178.273468 
	C352.660492,183.110413 355.908813,189.938156 357.129181,197.705704 
	C359.473633,212.628403 357.205261,226.638168 346.920258,238.325684 
	C337.105225,249.479126 322.813171,247.871902 315.343658,235.130661 
	C307.212860,221.261383 308.538086,197.699036 318.174683,184.796951 
	C324.719513,176.034317 334.975189,173.492203 345.572205,178.273468 
z"/>
<path fill="#C88A32" opacity="1.000000" stroke="none" 
	d="
M308.795074,500.360535 
	C314.160065,504.229828 319.824951,501.453217 325.078674,500.617371 
	C329.452698,499.921448 333.464294,497.197357 337.794586,495.898987 
	C341.339874,494.835968 345.118164,494.550110 349.294891,493.892029 
	C353.313477,505.252838 362.355103,509.474213 372.919403,511.906189 
	C382.152557,514.031677 384.567932,517.537537 382.758881,526.866028 
	C382.390533,528.765381 379.887756,531.511414 378.149933,531.685913 
	C363.932861,533.113220 349.668671,534.776978 335.409241,534.867554 
	C322.509491,534.949463 309.597504,533.145996 296.692230,532.156555 
	C296.041290,532.106567 295.256042,532.086060 294.781555,531.725342 
	C290.269440,528.295166 292.325500,523.449158 292.510925,519.215149 
	C292.640900,516.246277 294.715179,514.109192 298.279755,514.267212 
	C301.259521,514.399353 304.249786,514.294312 307.414795,514.294312 
	C307.829193,509.561035 308.216003,505.143158 308.795074,500.360535 
z"/>
<path fill="#C68C31" opacity="1.000000" stroke="none" 
	d="
M1531.128906,532.012573 
	C1529.009521,532.011108 1527.371460,532.011108 1525.379395,532.011108 
	C1525.379395,529.392395 1525.379395,527.153198 1525.379395,524.451416 
	C1620.412964,524.451416 1715.479004,524.451416 1810.981934,524.451416 
	C1810.981934,526.750610 1810.981934,529.129883 1810.981934,532.013977 
	C1717.829102,532.013977 1624.719604,532.013977 1531.128906,532.012573 
z"/>
<path fill="#C58830" opacity="1.000000" stroke="none" 
	d="
M1529.875977,424.909668 
	C1529.875732,427.677002 1529.875732,429.959198 1529.875732,432.525208 
	C1522.753662,432.525208 1516.187988,432.525208 1509.278198,432.525208 
	C1509.278198,397.222321 1509.278198,362.173157 1509.278198,326.740204 
	C1515.971802,326.740204 1522.547852,326.740204 1529.876221,326.740204 
	C1529.876221,359.297729 1529.876221,391.861115 1529.875977,424.909668 
z"/>
<path fill="#C68C31" opacity="1.000000" stroke="none" 
	d="
M724.000000,524.048950 
	C761.097351,524.050537 797.694763,524.050537 834.616577,524.050537 
	C834.616577,526.851501 834.616577,529.101501 834.616577,531.728088 
	C747.304260,531.728088 659.972168,531.728088 572.316650,531.728088 
	C572.316650,529.322510 572.316650,527.073914 572.316650,524.047302 
	C622.728882,524.047302 673.114441,524.047302 724.000000,524.048950 
z"/>
<path fill="#C68930" opacity="1.000000" stroke="none" 
	d="
M367.457458,254.436340 
	C359.975372,240.972092 362.506927,219.382462 372.716644,208.291107 
	C377.679871,202.899231 383.689789,200.080078 391.069550,202.378845 
	C399.017059,204.854492 402.622314,211.189560 403.749634,218.809067 
	C405.448181,230.289658 402.593231,241.018906 396.229584,250.585724 
	C394.102570,253.783371 390.872314,256.602234 387.541870,258.572357 
	C379.991119,263.039062 373.501984,261.523193 367.457458,254.436340 
z"/>
<path fill="#C88A32" opacity="1.000000" stroke="none" 
	d="
M1441.613770,550.658813 
	C1426.801270,558.971741 1409.343872,555.362732 1402.108032,542.766602 
	C1395.004517,530.400574 1398.819336,515.026245 1410.914673,507.273193 
	C1423.363647,499.293518 1440.411865,502.569794 1448.702148,514.535156 
	C1456.551392,525.863647 1453.634277,541.285217 1441.613770,550.658813 
M1439.982910,519.749939 
	C1439.375732,518.957886 1438.831177,518.106812 1438.151245,517.383179 
	C1432.941284,511.839447 1425.368652,510.477631 1418.475342,513.809998 
	C1411.886353,516.995239 1408.235229,524.080872 1409.274414,531.666138 
	C1410.282837,539.026123 1415.464600,544.556641 1422.885254,545.687073 
	C1429.248169,546.656433 1434.831543,544.847656 1438.857544,539.611206 
	C1443.481445,533.597046 1443.784180,527.108154 1439.982910,519.749939 
z"/>
<path fill="#C88C34" opacity="1.000000" stroke="none" 
	d="
M1214.572998,503.506042 
	C1220.505737,503.486267 1226.000732,503.326233 1231.485596,503.495605 
	C1246.711304,503.965759 1256.609009,513.865173 1256.788208,528.630493 
	C1256.962402,542.975525 1247.220703,553.396301 1232.429443,554.258972 
	C1225.983765,554.634888 1219.498047,554.322144 1212.704224,554.322144 
	C1212.541138,553.243652 1212.280884,552.318237 1212.279175,551.392212 
	C1212.251465,536.917969 1212.202759,522.443237 1212.337280,507.970184 
	C1212.351074,506.480072 1213.505615,505.000549 1214.572998,503.506042 
M1236.361694,513.566101 
	C1231.804443,513.169434 1227.247070,512.772705 1222.497681,512.359253 
	C1222.497681,523.826904 1222.497681,534.385254 1222.497681,544.887085 
	C1235.324463,546.699097 1242.290771,543.622131 1245.160767,535.096313 
	C1248.123779,526.294800 1245.170166,518.496216 1236.361694,513.566101 
z"/>
<path fill="#C88A32" opacity="1.000000" stroke="none" 
	d="
M426.726624,277.726929 
	C425.749969,278.667542 425.063019,279.402100 424.291656,280.033661 
	C419.900452,283.629028 414.964203,285.387512 409.434692,283.362946 
	C403.850525,281.318359 401.875488,276.285553 401.417267,271.046814 
	C400.506775,260.638123 403.522827,251.232040 410.672363,243.468140 
	C415.743591,237.961105 422.772522,236.341217 428.348816,238.938568 
	C433.614716,241.391327 437.373535,248.503510 436.486450,255.395798 
	C435.430573,263.599701 432.930786,271.315063 426.726624,277.726929 
z"/>
<path fill="#C88C34" opacity="1.000000" stroke="none" 
	d="
M1120.847412,545.472778 
	C1130.785156,546.601807 1135.511597,542.653809 1135.673218,533.155273 
	C1135.837036,523.516235 1135.709473,513.872131 1135.709473,503.841736 
	C1139.162842,503.841736 1142.193237,503.841736 1145.477173,503.841736 
	C1145.477173,515.600952 1146.357178,527.286926 1145.230469,538.776062 
	C1144.099121,550.312317 1134.086060,556.217041 1120.666870,555.067383 
	C1109.800049,554.136353 1103.098633,546.912354 1102.863892,535.453552 
	C1102.659180,525.461182 1102.780273,515.462036 1102.779419,505.465881 
	C1102.779419,504.994446 1102.991943,504.522980 1103.176392,503.757507 
	C1106.101685,503.757507 1109.016724,503.757507 1112.796753,503.757507 
	C1112.796753,507.497040 1112.796875,511.245117 1112.796753,514.993225 
	C1112.796753,521.491089 1112.712036,527.990356 1112.822876,534.486328 
	C1112.912720,539.758850 1114.799561,543.923767 1120.847412,545.472778 
z"/>
<path fill="#C88C34" opacity="1.000000" stroke="none" 
	d="
M923.240356,523.986206 
	C926.801147,525.499084 930.199585,526.551208 933.156494,528.335144 
	C942.947693,534.242432 942.605469,547.144714 932.667358,552.749634 
	C924.709167,557.237915 909.485107,555.717529 903.347107,546.547180 
	C905.113037,544.649292 906.886719,542.743042 908.777771,540.710632 
	C913.420715,544.573730 918.136536,547.754944 923.952087,546.049622 
	C926.246338,545.376953 929.063049,543.061096 929.604736,540.966675 
	C930.006592,539.412964 927.542114,536.307556 925.603699,535.141357 
	C922.383240,533.203735 918.499634,532.406616 915.002930,530.882263 
	C907.371704,527.555603 903.963379,521.820923 905.266968,514.861206 
	C906.549866,508.012024 912.576965,503.392731 920.608032,503.103455 
	C927.290771,502.862701 932.661743,504.985748 937.957397,510.147827 
	C936.010620,511.804657 934.054016,513.469788 931.963135,515.249329 
	C929.783997,514.351074 927.137512,512.819458 924.292480,512.199951 
	C920.800293,511.439453 916.827759,511.540924 915.439941,515.662354 
	C914.048645,519.794067 917.416382,521.508423 920.557068,522.942505 
	C921.312317,523.287354 922.101990,523.556580 923.240356,523.986206 
z"/>
<path fill="#C88A32" opacity="1.000000" stroke="none" 
	d="
M457.281677,278.180298 
	C460.180511,291.571289 451.870361,306.481354 439.566681,310.592926 
	C432.260834,313.034332 426.118500,309.328064 424.873077,301.726868 
	C423.130310,291.090027 430.921448,276.642944 440.689728,272.398193 
	C447.770752,269.321167 453.095978,271.068451 457.281677,278.180298 
z"/>
<path fill="#C68930" opacity="1.000000" stroke="none" 
	d="
M1031.877686,503.470398 
	C1034.814331,503.472443 1037.270996,503.472443 1040.118896,503.472443 
	C1040.118896,506.630402 1040.118896,509.353149 1040.118896,512.707275 
	C1035.695557,512.707275 1031.308472,512.707275 1026.549805,512.707275 
	C1026.549805,526.735413 1026.549805,540.148010 1026.549805,553.992920 
	C1022.966553,553.992920 1019.773926,553.992920 1016.114258,553.992920 
	C1016.114258,540.396912 1016.114258,526.853821 1016.114258,512.826904 
	C1011.601379,512.826904 1007.519653,512.826904 1003.084656,512.826904 
	C1003.084656,509.617401 1003.084656,506.894165 1003.084656,503.468384 
	C1012.586731,503.468384 1021.992249,503.468384 1031.877686,503.470398 
z"/>
<path fill="#C88C34" opacity="1.000000" stroke="none" 
	d="
M275.620483,543.916504 
	C275.802063,546.812500 276.482117,549.370667 273.032684,551.641357 
	C270.434509,553.351746 271.502625,557.432190 274.316284,559.782349 
	C276.783661,561.843140 277.751068,563.827576 273.887756,566.089844 
	C274.100433,566.458435 274.313141,566.827026 274.525818,567.195618 
	C279.645081,567.195618 284.764343,567.186951 289.883575,567.198486 
	C293.697327,567.207092 297.511749,567.201477 301.324524,567.273926 
	C307.691925,567.394897 314.058228,567.572327 320.424957,567.727844 
	C323.672333,567.807129 326.919495,567.953186 330.167023,567.960754 
	C342.976532,567.990601 355.787476,568.088806 368.595215,567.936707 
	C375.816376,567.850952 383.031799,567.314209 390.251129,567.012695 
	C391.409637,566.964355 392.575836,567.132507 393.737305,567.116455 
	C395.730347,567.088867 397.722473,566.994812 399.714966,566.928650 
	C399.133728,564.379456 398.586884,561.821533 397.945953,559.287476 
	C397.794312,558.688049 397.326355,558.168640 396.669312,557.035278 
	C398.074005,556.315063 399.242584,555.493652 400.541077,555.089233 
	C405.832214,553.441345 406.089203,552.682068 403.017242,548.228149 
	C402.515900,547.501282 402.821655,546.217773 403.069794,544.986694 
	C404.560150,546.981323 406.422150,549.082031 406.756042,551.402588 
	C407.318848,555.314331 406.825012,559.368042 406.936615,563.357544 
	C407.067841,568.050171 404.782806,569.939026 400.232239,569.900757 
	C388.754181,569.804321 377.274933,569.837646 365.796143,569.841064 
	C336.516907,569.849670 307.237671,569.874023 277.958435,569.883301 
	C270.708221,569.885620 269.212311,568.379700 269.195221,561.127869 
	C269.187378,557.800720 268.972198,554.453430 269.264099,551.151794 
	C269.585602,547.516052 270.737793,544.216736 275.620483,543.916504 
z"/>
<path fill="#C88C34" opacity="1.000000" stroke="none" 
	d="
M1327.087891,554.380859 
	C1324.529053,554.388977 1322.344116,554.898865 1322.385376,551.358398 
	C1322.563354,536.076782 1322.542603,520.792786 1322.615723,505.509796 
	C1322.618042,505.044586 1322.858887,504.580505 1323.073364,503.811584 
	C1325.979736,503.811584 1328.902222,503.811584 1332.275635,503.811584 
	C1332.275635,520.364929 1332.275635,537.022400 1332.275635,554.378784 
	C1330.715210,554.378784 1329.114014,554.378784 1327.087891,554.380859 
z"/>
<path fill="#C88A32" opacity="1.000000" stroke="none" 
	d="
M316.951202,479.297729 
	C319.758179,481.959137 323.143494,481.107178 326.475647,481.048004 
	C333.206207,480.928528 340.383484,482.512756 344.638062,474.527496 
	C345.086151,474.663940 345.534241,474.800415 345.982330,474.936890 
	C346.612000,476.871765 348.151703,479.128571 347.613403,480.650299 
	C347.083527,482.148163 344.546936,483.591614 342.716522,483.857086 
	C335.883850,484.848083 329.534912,486.721375 324.119446,491.220795 
	C323.131805,492.041412 321.814606,492.748840 320.567749,492.922882 
	C316.167572,493.537109 312.544495,495.372314 309.475769,498.955872 
	C311.677155,492.533630 314.221588,486.064514 316.951202,479.297729 
z"/>
<path fill="#C88A32" opacity="1.000000" stroke="none" 
	d="
M323.075684,442.457886 
	C323.768585,443.322937 324.713531,444.592804 324.938568,445.979492 
	C325.773468,451.124054 326.040558,456.378204 327.132019,461.459900 
	C328.988037,470.101471 327.736115,472.632385 318.610718,475.660736 
	C321.235596,464.870911 323.788696,454.139069 323.075684,442.457886 
z"/>
<path fill="#C88C34" opacity="1.000000" stroke="none" 
	d="
M400.640717,543.810974 
	C400.460114,544.285156 399.903809,544.893066 399.349792,544.890991 
	C381.760956,544.825256 364.172333,544.700378 346.289246,544.287109 
	C364.085205,543.879944 382.175629,543.770142 400.640717,543.810974 
z"/>
<path fill="#C88C34" opacity="1.000000" stroke="none" 
	d="
M341.625854,543.855347 
	C341.444061,544.308289 340.882996,544.901184 340.325043,544.898254 
	C326.406036,544.826294 312.487396,544.691406 298.276703,544.265869 
	C312.405823,543.881958 326.826904,543.799805 341.625854,543.855347 
z"/>
<path fill="#FDFCFB" opacity="1.000000" stroke="none" 
	d="
M734.260071,401.629578 
	C721.852417,382.575134 727.446167,357.933563 746.095032,348.262177 
	C762.206421,339.906738 782.400818,345.090118 791.952942,360.032776 
	C801.806580,375.446991 798.256287,397.349121 784.140137,408.231445 
	C769.065430,419.852722 749.205994,418.181305 736.406860,404.206879 
	C735.733521,403.471802 735.116455,402.685181 734.260071,401.629578 
z"/>
<path fill="#FCFAF8" opacity="1.000000" stroke="none" 
	d="
M1417.829834,370.549561 
	C1414.042603,375.862488 1409.048462,378.115631 1403.031982,378.209473 
	C1397.719482,378.292328 1392.404785,378.226807 1386.622559,378.226807 
	C1386.622559,367.155640 1386.622559,356.300354 1386.622559,345.047485 
	C1393.125122,345.047485 1399.643433,344.397980 1405.983032,345.186310 
	C1418.179932,346.703003 1423.524170,358.315063 1417.829834,370.549561 
z"/>
<path fill="#FCFAF8" opacity="1.000000" stroke="none" 
	d="
M1277.755859,349.183044 
	C1283.812622,355.817047 1284.611206,363.126892 1281.267334,370.721436 
	C1278.127686,377.852020 1271.757080,379.977966 1264.459839,380.002502 
	C1259.520874,380.019104 1254.581787,380.005676 1249.413818,380.005676 
	C1249.283691,378.732178 1249.133667,377.940826 1249.132446,377.149261 
	C1249.116699,366.695923 1249.121948,356.242554 1249.121948,344.868134 
	C1258.845093,345.728546 1268.755493,342.020844 1277.755859,349.183044 
z"/>
<path fill="#FCFAF8" opacity="1.000000" stroke="none" 
	d="
M1440.185791,520.069641 
	C1443.784180,527.108154 1443.481445,533.597046 1438.857544,539.611206 
	C1434.831543,544.847656 1429.248169,546.656433 1422.885254,545.687073 
	C1415.464600,544.556641 1410.282837,539.026123 1409.274414,531.666138 
	C1408.235229,524.080872 1411.886353,516.995239 1418.475342,513.809998 
	C1425.368652,510.477631 1432.941284,511.839447 1438.151245,517.383179 
	C1438.831177,518.106812 1439.375732,518.957886 1440.185791,520.069641 
z"/>
<path fill="#FCFAF8" opacity="1.000000" stroke="none" 
	d="
M1236.739746,513.712646 
	C1245.170166,518.496216 1248.123779,526.294800 1245.160767,535.096313 
	C1242.290771,543.622131 1235.324463,546.699097 1222.497681,544.887085 
	C1222.497681,534.385254 1222.497681,523.826904 1222.497681,512.359253 
	C1227.247070,512.772705 1231.804443,513.169434 1236.739746,513.712646 
z"/>
</svg>