<svg version="1.1" id="Layer_1" xmlns="http://www.w3.org/2000/svg" xmlns:xlink="http://www.w3.org/1999/xlink" x="0px" y="0px"
	 width="100%" viewBox="0 0 1024 1024" enable-background="new 0 0 1024 1024" xml:space="preserve">
<path fill="#E0961A" opacity="1.000000" stroke="none" 
	d="
M529.025269,700.305237 
	C530.728760,720.362976 540.130554,730.576599 560.319580,734.606262 
	C564.072998,735.355530 567.866333,735.905273 571.618042,736.662354 
	C578.571533,738.065796 582.959900,743.239258 583.217712,750.317871 
	C583.314697,752.980713 583.252441,755.649963 583.237244,758.316162 
	C583.185608,767.408264 580.286499,770.372498 571.328674,770.380981 
	C544.832214,770.406067 518.335754,770.411804 491.839264,770.411133 
	C474.519318,770.410706 457.199249,770.424988 439.879517,770.354004 
	C432.294373,770.322937 429.815369,767.718750 429.720215,760.035645 
	C429.689240,757.536316 429.666992,755.035889 429.700409,752.536804 
	C429.791809,745.699707 432.547943,742.958435 439.500000,742.809875 
	C442.831360,742.738647 446.165741,742.795654 449.496399,742.706848 
	C452.261139,742.633179 453.804565,741.320374 453.753143,738.354675 
	C453.436981,720.117859 459.220398,703.301147 465.881317,686.701965 
	C474.327423,665.654114 480.011322,644.147583 479.043549,621.121033 
	C478.069214,597.939514 469.894501,577.296936 458.263062,557.750488 
	C444.756256,535.052368 427.902313,514.787476 411.627319,494.096191 
	C397.257629,475.827240 384.048553,456.725616 377.069733,434.265259 
	C367.062195,402.057251 368.546570,371.062317 389.579102,343.106812 
	C402.656555,325.724884 420.951050,316.786774 441.925659,312.709320 
	C471.920227,306.878387 500.928253,311.595398 529.384216,321.182526 
	C559.092346,331.191498 585.959778,346.373596 609.393982,367.246399 
	C641.163391,395.543335 658.533203,430.683044 657.991760,473.708191 
	C657.572021,507.068329 645.131653,536.252014 625.849365,562.954590 
	C606.732239,589.428284 583.574036,612.212952 560.641968,635.228088 
	C548.819214,647.093628 537.885986,659.665161 532.304993,675.865112 
	C529.637451,683.608276 528.060303,691.594971 529.025269,700.305237 
z"/>
<path fill="#E0961A" opacity="1.000000" stroke="none" 
	d="
M399.393799,141.263260 
	C417.583374,146.898499 428.739227,159.605515 435.371338,176.150970 
	C447.612183,206.688843 447.245514,237.289078 432.990387,267.203491 
	C427.600311,278.514496 419.821838,288.044647 408.333496,293.905396 
	C385.886017,305.356995 359.909943,298.049347 344.841187,275.839417 
	C335.362122,261.868103 331.020874,246.160660 329.614532,229.429443 
	C327.974884,209.923279 330.775940,191.209961 339.295502,173.600494 
	C347.515411,156.610352 359.952637,144.268692 379.212708,140.367340 
	C385.853699,139.022110 392.459167,139.530823 399.393799,141.263260 
z"/>
<path fill="#E0961A" opacity="1.000000" stroke="none" 
	d="
M545.999878,838.375427 
	C496.867279,838.360474 448.234741,838.352722 399.602203,838.325684 
	C388.694183,838.319641 383.736755,833.362854 383.703339,822.497070 
	C383.683350,816.001709 383.612213,809.504639 383.724121,803.011108 
	C383.868652,794.625061 389.011627,789.329712 397.354980,788.814392 
	C399.015015,788.711792 400.684906,788.754639 402.350250,788.754578 
	C474.799438,788.750977 547.248596,788.747742 619.697815,788.751221 
	C631.640137,788.751770 636.977966,794.160522 636.960571,806.202515 
	C636.952393,811.865051 637.025635,817.529602 636.902832,823.189758 
	C636.695557,832.744324 631.044739,838.293274 621.447388,838.315552 
	C596.464966,838.373596 571.482422,838.360413 545.999878,838.375427 
z"/>
<path fill="#E0961A" opacity="1.000000" stroke="none" 
	d="
M507.468628,286.843628 
	C491.914948,291.363525 478.404541,286.420166 469.848419,273.119263 
	C458.820129,255.975388 457.731079,237.106308 461.177002,217.752533 
	C463.205902,206.357346 467.359436,195.618195 474.569946,186.337509 
	C492.168274,163.686600 521.574219,166.472504 534.544312,191.982849 
	C547.471680,217.409149 540.880127,258.241180 520.699463,278.284637 
	C516.960266,281.998444 512.710938,284.784546 507.468628,286.843628 
z"/>
<path fill="#E0961A" opacity="1.000000" stroke="none" 
	d="
M549.233887,289.480530 
	C543.416443,265.825104 547.878723,244.399948 561.856079,225.229675 
	C571.298462,212.279236 587.365662,208.445923 599.402527,215.347275 
	C609.824829,221.322937 614.691345,231.200974 616.000183,242.475662 
	C618.468567,263.739655 613.038391,283.146301 599.399475,299.798645 
	C591.990295,308.844849 582.276978,313.796417 570.291199,311.217743 
	C558.865540,308.759613 552.681213,300.575165 549.233887,289.480530 
z"/>
<path fill="#E0961A" opacity="1.000000" stroke="none" 
	d="
M668.364136,294.205261 
	C668.889343,312.934113 662.001709,328.027466 648.776917,340.386566 
	C645.933472,343.043884 642.481018,344.735718 638.867004,346.056091 
	C628.358704,349.895264 618.204468,345.498047 613.700317,335.222382 
	C610.083923,326.972229 609.929749,318.424408 611.642212,309.762238 
	C614.092041,297.370392 619.211792,286.305481 628.705811,277.713226 
	C642.924866,264.844574 661.223816,268.830017 666.820190,285.934662 
	C667.638123,288.434540 667.858337,291.130005 668.364136,294.205261 
z"/>
<path fill="#E0961A" opacity="1.000000" stroke="none" 
	d="
M651.506348,380.111633 
	C645.645142,360.253510 658.602234,333.750366 677.191833,326.911560 
	C689.642639,322.331116 700.655701,329.003754 702.286194,342.115723 
	C704.459412,359.592896 693.845764,380.337158 678.411072,388.779694 
	C666.840881,395.108429 657.240540,392.133179 651.506348,380.111633 
z"/>
</svg>